<?xml version="1.0" standalone="no"?>
<!DOCTYPE svg PUBLIC "-//W3C//DTD SVG 20010904//EN"
 "http://www.w3.org/TR/2001/REC-SVG-20010904/DTD/svg10.dtd">
<svg version="1.0" xmlns="http://www.w3.org/2000/svg"
 width="700.000000pt" height="700.000000pt" viewBox="0 0 700.000000 700.000000"
 preserveAspectRatio="xMidYMid meet">
<metadata>
Created by potrace 1.14, written by Peter Selinger 2001-2017
</metadata>
<g transform="translate(0.000000,700.000000) scale(0.100000,-0.100000)"
fill="#000000" stroke="none">
<path d="M770 6398 c-38 -11 -86 -42 -112 -73 -9 -11 -50 -86 -89 -167 -78
-157 -71 -151 -159 -163 -309 -42 -340 -55 -391 -169 -25 -58 -21 -137 11
-195 12 -20 74 -87 139 -149 l118 -113 -24 -127 c-34 -182 -36 -247 -13 -299
38 -85 113 -134 208 -135 48 -1 70 7 213 81 l159 82 159 -82 c144 -75 163 -82
215 -82 105 2 190 67 217 167 12 45 3 134 -30 301 l-18 89 123 121 c130 128
163 178 164 249 1 132 -89 220 -245 240 -109 14 -247 34 -249 38 -2 1 -36 71
-77 153 -42 87 -86 162 -104 178 -56 52 -143 74 -215 55z"/>
<path d="M2844 6045 c-165 -35 -300 -165 -344 -333 -6 -24 -10 -78 -9 -120 6
-207 147 -379 350 -426 42 -9 476 -12 1924 -11 1862 2 1870 2 1926 22 324 119
412 523 166 756 -58 55 -149 101 -224 115 -31 5 -791 9 -1890 9 -1441 0 -1851
-3 -1899 -12z"/>
<path d="M755 4288 c-72 -27 -102 -64 -181 -221 -41 -84 -78 -155 -82 -159 -6
-6 -168 -32 -267 -44 -96 -11 -176 -67 -208 -146 -19 -45 -16 -142 6 -184 9
-16 72 -85 140 -153 l124 -122 -18 -94 c-37 -196 -42 -252 -28 -303 17 -63 90
-136 150 -152 77 -21 128 -7 290 77 l150 78 150 -78 c162 -84 212 -98 287 -78
85 23 162 124 162 211 0 35 -47 307 -55 321 -4 6 50 68 121 140 77 76 135 144
145 166 45 109 1 235 -102 288 -27 15 -92 30 -164 39 -16 2 -52 7 -80 11 -45
7 -74 11 -112 14 -7 1 -45 65 -84 144 -85 170 -99 191 -151 223 -45 29 -145
40 -193 22z"/>
<path d="M2808 3931 c-124 -40 -217 -121 -276 -240 -36 -73 -37 -78 -37 -190
0 -113 1 -118 37 -191 60 -124 164 -211 293 -246 41 -11 370 -14 1915 -14
1654 0 1873 2 1925 16 286 74 421 409 268 666 -38 64 -112 135 -174 167 -102
53 -7 51 -2024 50 -1781 0 -1873 -1 -1927 -18z"/>
<path d="M790 2190 c-92 -17 -129 -56 -218 -235 -39 -78 -76 -146 -84 -152 -7
-6 -33 -13 -58 -16 -209 -27 -290 -44 -331 -71 -55 -37 -93 -108 -96 -177 -3
-87 22 -127 159 -261 l120 -119 -6 -61 c-4 -34 -9 -64 -10 -67 -2 -3 -7 -24
-10 -46 -4 -22 -11 -67 -17 -99 -25 -138 34 -245 154 -281 77 -22 116 -12 282
74 l155 81 155 -81 c165 -86 205 -97 287 -75 55 15 129 87 146 142 16 54 15
81 -3 184 -9 47 -18 101 -21 120 -3 19 -8 51 -12 70 -8 35 -7 36 111 150 131
127 167 182 167 260 0 87 -62 179 -143 209 -33 13 -140 31 -279 47 -31 4 -61
9 -66 13 -5 3 -42 71 -81 151 -40 80 -83 157 -96 172 -47 54 -130 82 -205 68z"/>
<path d="M2849 1833 c-170 -34 -303 -162 -349 -333 -16 -59 -10 -185 11 -247
47 -139 146 -236 296 -290 45 -17 169 -18 1918 -19 1412 -1 1882 2 1920 11
163 39 285 151 335 309 22 73 21 207 -4 273 -51 140 -161 248 -299 291 -47 14
-222 16 -1909 17 -1465 1 -1870 -2 -1919 -12z"/>
</g>
</svg>
